<?xml version="1.0" encoding="utf-8"?>
<!-- Generator: Adobe Illustrator 16.0.0, SVG Export Plug-In . SVG Version: 6.00 Build 0)  -->
<!DOCTYPE svg PUBLIC "-//W3C//DTD SVG 1.1//EN" "http://www.w3.org/Graphics/SVG/1.1/DTD/svg11.dtd">
<svg version="1.1" id="Layer_1" xmlns="http://www.w3.org/2000/svg" xmlns:xlink="http://www.w3.org/1999/xlink" x="0px" y="0px"
	 width="91.333px" height="91.333px" viewBox="289.955 20.371 91.333 91.333" enable-background="new 289.955 20.371 91.333 91.333"
	 xml:space="preserve">
<circle fill="#FFFFFF" cx="335.622" cy="66.038" r="45.667"/>
<g>
	<polyline fill="#FFFFFF" points="312.133,54.726 324.361,42.183 359.376,76.885 346.729,89.636 	"/>
	<path d="M323.843,41.365l-9.091,9.09l-3.402,3.403l-0.4,0.401c-0.367,0.367-0.367,0.964,0,1.33L346.07,90.71
		c0.366,0.367,0.962,0.369,1.33,0l12.894-12.895c0.368-0.367,0.368-0.963,0-1.33l-35.12-35.122
		C324.806,40.998,324.211,40.997,323.843,41.365z M358.299,77.151l-11.563,11.564l-5.854-5.854l3.138-3.139
		c0.368-0.367,0.368-0.964,0-1.33c-0.367-0.367-0.962-0.369-1.33,0l-3.138,3.139l-2.662-2.661l3.14-3.14
		c0.367-0.367,0.366-0.963,0-1.33c-0.368-0.367-0.963-0.367-1.331,0l-3.139,3.139l-2.66-2.66l3.139-3.139
		c0.367-0.367,0.367-0.963,0-1.33s-0.963-0.367-1.33,0l-3.14,3.139l-2.66-2.66l3.139-3.139c0.367-0.369,0.366-0.964,0-1.332
		c-0.367-0.366-0.963-0.367-1.331,0l-3.138,3.14l-2.661-2.661l3.138-3.139c0.368-0.368,0.368-0.963,0-1.33
		c-0.366-0.367-0.962-0.368-1.33,0l-3.138,3.138l-2.661-2.66l3.139-3.139c0.367-0.367,0.367-0.963,0-1.33s-0.963-0.367-1.33,0
		l-3.139,3.139l-2.661-2.66l3.138-3.139c0.369-0.369,0.368-0.964,0-1.331c-0.365-0.366-0.961-0.368-1.33,0l-3.138,3.139l-2.66-2.661
		l3.138-3.139l8.426-8.425L358.299,77.151z"/>
</g>
</svg>
