<?xml version="1.0" encoding="utf-8"?>
<!-- Generator: Adobe Illustrator 16.0.0, SVG Export Plug-In . SVG Version: 6.00 Build 0)  -->
<!DOCTYPE svg PUBLIC "-//W3C//DTD SVG 1.1//EN" "http://www.w3.org/Graphics/SVG/1.1/DTD/svg11.dtd">
<svg version="1.1" id="Layer_1" xmlns="http://www.w3.org/2000/svg" xmlns:xlink="http://www.w3.org/1999/xlink" x="0px" y="0px"
	 width="98.599px" height="98.599px" viewBox="-220.162 -127.499 98.599 98.599"
	 enable-background="new -220.162 -127.499 98.599 98.599" xml:space="preserve">
<g>
	<defs>
		<circle id="SVGID_1_" cx="-170.863" cy="-78.199" r="47.799"/>
	</defs>
	<clipPath id="SVGID_2_">
		<use xlink:href="#SVGID_1_"  overflow="visible"/>
	</clipPath>
	<path clip-path="url(#SVGID_2_)" fill="#FFFFFF" d="M-121.948-120.507c-4.961-0.302-9.545,0.314-13.42,1.241
		c-0.002-0.231,0.276-0.797,0.706-1.289c0.131-0.148,0.162-0.36,0.08-0.54c-0.082-0.182-0.261-0.297-0.459-0.297
		c-3.719,0-8.781,3.771-10.566,5.197c-0.119-4.939-3.271-9.197-3.427-9.404c-0.171-0.227-0.43-0.37-0.712-0.396
		c-0.29-0.024-0.564,0.068-0.773,0.259c-4.225,3.854-3.444,11.122-3.115,13.22c-0.309,0.287-0.625,0.579-0.949,0.877
		c-1.314,1.213-2.753,2.54-4.17,3.962c-0.002,0-0.004,0-0.006,0c-0.307,0.058-0.4-0.028-0.432-0.057
		c-0.349-0.312-0.246-1.525-0.197-2.109c0.06-0.701,0.1-1.163-0.359-1.322c-0.451-0.157-0.751,0.286-0.927,0.553
		c-1.211,1.833-1.985,6.311-2.019,6.499c-0.037,0.218,0.075,0.423,0.26,0.523c-2.569,3.233-4.506,6.802-4.559,10.562
		c-0.091,6.548-1.72,11.841-2.908,15.706c-0.385,1.251-0.718,2.329-0.933,3.248c-0.195,0.829,0.603,2.34,1.151,3.096
		c0.908,1.255,2.022,1.975,3.223,2.076c3.24,0.272,5.346-2.251,7.225-4.478c2.045-2.424,3.395-3.86,5.264-3.005
		c0.141,0.062,0.598,0.289,0.615,0.512c0.105,1.309-4.438,4.354-6.377,5.656c-2.606,1.749-3.291,2.238-3.324,3.062
		c-0.016,0.362,0.142,0.701,0.426,0.928c1.55,1.233,3.057,1.715,4.479,1.715c1.883-0.001,3.616-0.847,5.107-1.907
		c0.138,0.021,0.283-0.012,0.398-0.107c0.448-0.376,0.936-0.511,1.443-0.406c0.796,0.166,1.577,0.915,2.145,2.058
		c0.242,0.486,0.461,0.861,0.85,0.861c0.005,0,0.01,0,0.014-0.002c0.196-0.004,0.412-0.154,0.49-0.334
		c0.182-0.407-0.161-1.948-0.52-3.061c0.963,0.561,2.341,1.68,2.6,3.113c0.093,0.515,0.154,0.854,0.533,0.932
		c0.033,0.007,0.066,0.011,0.099,0.011c0.171,0,0.339-0.087,0.435-0.229c0.234-0.354,0-3.286-0.391-5.625
		c0.604,0.707,1.297,1.343,1.945,1.511c0.182,0.047,0.371-0.009,0.497-0.146c0.126-0.137,0.166-0.33,0.106-0.507
		c-0.392-1.145-1.086-4.106-0.359-5.854c5.89-4.089,9.559-7.798,10.184-13.393c2.318-0.939,6.01-1.57,10.003,1.139
		c0.31,0.209,0.708,0.23,1.039,0.057c0.33-0.176,0.536-0.519,0.536-0.892V-119.5C-121-120.034-121.415-120.475-121.948-120.507z
		 M-166.706-75.054c-0.121,0.251-0.423,0.357-0.673,0.235c-0.17-0.081-0.229-0.047-0.252-0.033
		c-0.278,0.164-0.475,1.017-0.502,1.541c-0.016,0.27-0.237,0.478-0.504,0.478c-0.01,0-0.018,0-0.027-0.001
		c-0.277-0.016-0.49-0.252-0.477-0.531c0.018-0.305,0.143-1.85,0.996-2.354c0.248-0.147,0.66-0.271,1.203-0.007
		C-166.689-75.607-166.585-75.305-166.706-75.054z M-159.075-90.802c-1.801,0-3.265-1.465-3.265-3.265s1.464-3.264,3.265-3.264
		c1.8,0,3.265,1.464,3.265,3.264S-157.275-90.802-159.075-90.802z"/>
	<path clip-path="url(#SVGID_2_)" fill="#FFFFFF" d="M-156.839-55.5c-0.48-0.771-1.414-1.163-2.771-1.163
		c-3.6,0-10.022,2.739-10.295,2.854c-0.463,0.199-0.709,0.711-0.574,1.196c0.271,0.979,0.045,2.011-0.637,2.905
		c-0.918,1.205-3.486,3.227-10.396,3.227c-0.001,0-0.002,0-0.003,0c-0.288,0-0.58-0.003-0.88-0.011
		c-1.515-0.036-2.694-0.314-4.325-0.698c-1.112-0.263-2.424-0.569-4.179-0.889c0.894-0.349,2.356-0.651,4.657-0.651
		c1.193,0,2.545,0.081,4.018,0.239c0.742,0.08,1.467,0.121,2.154,0.121c4.893,0,7.451-2.054,7.451-4.081
		c0-0.905-0.515-1.734-1.412-2.272c-1.131-0.677-2.813-0.901-4.881-0.643c-0.669,0.084-1.388,0.126-2.136,0.127
		c-3.128,0-6.481-0.726-9.724-1.428c-3.111-0.674-6.05-1.312-8.704-1.312c-0.64,0-1.25,0.039-1.812,0.115
		c-4.541,0.609-7.162,1.951-10.197,3.504c-3.757,1.924-8.432,4.317-18.876,6.438c-0.301,0.062-0.558,0.257-0.698,0.529
		c-0.14,0.273-0.148,0.596-0.021,0.875c0.212,0.472,5.27,11.561,10.079,14.121c0.149,0.079,0.312,0.118,0.475,0.118
		c0.188,0,0.377-0.054,0.542-0.159c0.127-0.08,13.268-8.44,20.738-7.825c4.049,0.328,6.512,0.916,8.491,1.39
		c0.927,0.222,1.728,0.412,2.513,0.531l1.04,0.161c1.502,0.238,2.8,0.443,4.194,0.443l0,0c3.464,0,7.125-1.357,13.509-5.013
		c1.799-1.029,3.397-1.918,4.808-2.7c5.563-3.091,8.104-4.501,8.654-6.633C-155.687-53.427-156.326-54.676-156.839-55.5z"/>
</g>
<circle fill="none" stroke="#FFFFFF" stroke-width="3" stroke-miterlimit="10" cx="-170.863" cy="-78.199" r="47.799"/>
</svg>
