<?xml version="1.0" encoding="utf-8"?>
<!-- Generator: Adobe Illustrator 16.0.0, SVG Export Plug-In . SVG Version: 6.00 Build 0)  -->
<!DOCTYPE svg PUBLIC "-//W3C//DTD SVG 1.1//EN" "http://www.w3.org/Graphics/SVG/1.1/DTD/svg11.dtd">
<svg version="1.1" id="Your_Icon" xmlns="http://www.w3.org/2000/svg" xmlns:xlink="http://www.w3.org/1999/xlink" x="0px" y="0px"
	 width="94.609px" height="99.65px" viewBox="-239.789 -49.825 94.609 99.65"
	 enable-background="new -239.789 -49.825 94.609 99.65" xml:space="preserve">
<g>
	<path fill="#FFFFFF" d="M-192.485,49.825c-26.083,0-47.304-21.219-47.304-47.303c0-13.036,5.459-25.621,14.979-34.534
		c2.42-2.256,6.201-2.13,8.463,0.278c2.256,2.414,2.133,6.201-0.281,8.46c-7.218,6.756-11.192,15.917-11.192,25.798
		c0,19.484,15.85,35.334,35.335,35.334c19.485,0,35.334-15.85,35.334-35.334c0-9.659-3.828-18.682-10.777-25.402
		c-2.373-2.297-2.437-6.087-0.139-8.463c2.297-2.367,6.084-2.443,8.463-0.14c9.297,8.997,14.424,21.075,14.424,34.006
		C-145.182,28.606-166.402,49.825-192.485,49.825z"/>
</g>
<path fill="#FFFFFF" d="M-192.485,1.364c-3.308,0-5.985-2.68-5.985-5.984v-39.22c0-3.305,2.677-5.985,5.985-5.985
	c3.307,0,5.985,2.68,5.985,5.985v39.221C-186.501-1.314-189.178,1.364-192.485,1.364z"/>
</svg>
