<?xml version="1.0" encoding="utf-8"?>
<!-- Generator: Adobe Illustrator 16.0.0, SVG Export Plug-In . SVG Version: 6.00 Build 0)  -->
<!DOCTYPE svg PUBLIC "-//W3C//DTD SVG 1.1//EN" "http://www.w3.org/Graphics/SVG/1.1/DTD/svg11.dtd">
<svg version="1.1" id="Layer_1" xmlns="http://www.w3.org/2000/svg" xmlns:xlink="http://www.w3.org/1999/xlink" x="0px" y="0px"
	 width="91.333px" height="91.333px" viewBox="146.955 10.371 91.333 91.333" enable-background="new 146.955 10.371 91.333 91.333"
	 xml:space="preserve">
<g>
	<circle fill="#FFFFFF" cx="192.622" cy="56.038" r="45.667"/>
	<g>
		<polyline fill="#FFFFFF" points="215.414,79.298 201.002,74.683 210.854,64.473 		"/>
		<polyline fill="#FFFFFF" points="210.625,64.131 200.094,74.938 170.48,44.516 169.342,42.234 169.568,38.812 170.254,36.303 
			173.447,33.566 177.096,32.426 179.833,33.338 		"/>
		<path d="M200.094,74.938c0.059,0.054,0.123,0.099,0.197,0.131c0.016,0.008,0.031,0.018,0.047,0.023
			c0.01,0.004,0.018,0.01,0.027,0.014l10.951,3.65l4.6,1.532c0.271,0.092,0.57,0.021,0.773-0.183s0.273-0.502,0.182-0.774
			l-1.531-4.601l-3.652-10.95c-0.002-0.008-0.008-0.016-0.012-0.025c-0.006-0.016-0.016-0.032-0.023-0.049
			c-0.033-0.072-0.078-0.139-0.129-0.195c-0.008-0.007-0.01-0.017-0.018-0.025l-29.373-29.374
			c-3.152-3.152-8.281-3.152-11.436,0.002c-3.152,3.154-3.152,8.284,0,11.436l29.371,29.373
			C200.076,74.931,200.086,74.932,200.094,74.938z M214.959,78.375l-2.377-0.792c0.018-0.029,0.033-0.059,0.049-0.088
			c0.051-0.084,0.105-0.166,0.162-0.248c0.043-0.064,0.084-0.129,0.133-0.19c0.074-0.096,0.154-0.185,0.236-0.271
			c0.066-0.072,0.135-0.142,0.207-0.207c0.088-0.081,0.178-0.162,0.271-0.236c0.061-0.048,0.125-0.09,0.191-0.134
			c0.08-0.057,0.164-0.111,0.248-0.162c0.027-0.015,0.057-0.03,0.086-0.046L214.959,78.375z M213.68,74.538
			c-0.035,0.018-0.064,0.042-0.098,0.059c-0.205,0.105-0.402,0.224-0.592,0.354c-0.057,0.039-0.115,0.079-0.172,0.12
			c-0.221,0.164-0.434,0.337-0.631,0.534c-0.197,0.196-0.371,0.41-0.535,0.632c-0.041,0.056-0.078,0.112-0.119,0.17
			c-0.129,0.188-0.246,0.385-0.35,0.589c-0.02,0.036-0.045,0.066-0.062,0.102l-9.117-3.04l8.637-8.636L213.68,74.538z
			 M171.768,44.479c-2.564-2.563-2.562-6.733,0-9.298c2.564-2.561,6.734-2.562,9.297,0l28.838,28.839l-2.141,2.14L180.07,38.467
			c-0.296-0.295-0.772-0.295-1.068,0c-0.295,0.297-0.297,0.773,0,1.07l27.691,27.692l-2.732,2.732L176.27,42.27
			c-0.297-0.295-0.775-0.295-1.07,0c-0.297,0.295-0.297,0.774,0,1.07l27.691,27.692l-2.285,2.285L171.768,44.479L171.768,44.479z"/>
	</g>
</g>
</svg>
